<?xml version="1.0" encoding="UTF-8" standalone="no"?>
<!-- Created with Inkscape (http://www.inkscape.org/) -->

<svg
   xmlns:dc="http://purl.org/dc/elements/1.1/"
   xmlns:cc="http://creativecommons.org/ns#"
   xmlns:rdf="http://www.w3.org/1999/02/22-rdf-syntax-ns#"
   xmlns:svg="http://www.w3.org/2000/svg"
   xmlns="http://www.w3.org/2000/svg"
   xmlns:sodipodi="http://sodipodi.sourceforge.net/DTD/sodipodi-0.dtd"
   xmlns:inkscape="http://www.inkscape.org/namespaces/inkscape"
   width="744.09448819"
   height="1052.3622047"
   id="svg4113"
   version="1.1"
   inkscape:version="0.48.4 r9939"
   sodipodi:docname="New document 9">
  <defs
     id="defs4115" />
  <sodipodi:namedview
     id="base"
     pagecolor="#ffffff"
     bordercolor="#666666"
     borderopacity="1.0"
     inkscape:pageopacity="0.0"
     inkscape:pageshadow="2"
     inkscape:zoom="0.35"
     inkscape:cx="375"
     inkscape:cy="520"
     inkscape:document-units="px"
     inkscape:current-layer="layer1"
     showgrid="false"
     inkscape:window-width="1366"
     inkscape:window-height="768"
     inkscape:window-x="0"
     inkscape:window-y="0"
     inkscape:window-maximized="0" />
  <metadata
     id="metadata4118">
    <rdf:RDF>
      <cc:Work
         rdf:about="">
        <dc:format>image/svg+xml</dc:format>
        <dc:type
           rdf:resource="http://purl.org/dc/dcmitype/StillImage" />
        <dc:title></dc:title>
      </cc:Work>
    </rdf:RDF>
  </metadata>
  <g
     inkscape:label="Layer 1"
     inkscape:groupmode="layer"
     id="layer1">
    <path
       id="path9141"
       d="m -139.67736,337.7211 c 0.0349,-0.14777 0.0847,-0.29719 0.10128,-0.4516 0.41839,-4.22376 -7.63399,-8.47575 -17.98586,-9.50015 -3.71904,-0.37024 -7.22058,-0.26398 -10.20411,0.21086 -2.88059,-5.61342 -9.88533,-9.58316 -18.08713,-9.58316 -8.05569,0 -14.96745,3.82363 -17.94102,9.27601 -4.12249,-2.25301 -9.41215,-3.89005 -15.30616,-4.47281 -13.33872,-1.31992 -24.80797,3.17447 -26.56621,10.15762 -23.01651,0.38353 -39.78538,5.33615 -40.54413,13.00002 -0.32874,3.32887 2.41571,6.74571 7.45301,9.95011 -0.74215,0.6591 -1.18046,1.393 -1.25849,2.1915 -0.42338,4.2836 9.59976,8.7813 22.38892,10.0448 5.5055,0.5462 10.61918,0.3984 14.70016,-0.2823 0.81354,0.1478 1.63704,0.2889 2.46552,0.4284 3.01508,3.7339 11.86107,7.0778 22.57987,8.137 13.00168,1.2867 23.96952,-1.2552 25.27948,-5.7114 2.72287,3.6211 8.04407,6.4004 14.39632,7.0264 9.63795,0.9546 17.95265,-3.3837 18.57692,-9.6878 0.1378,-1.393 -0.13117,-2.7644 -0.70895,-4.0677 19.88523,0.1378 35.08845,-4.8364 35.84222,-12.4654 0.49808,-5.05556 -5.44407,-10.2041 -15.18164,-14.2004 z"
       inkscape:connector-curvature="0"
       style="fill:#ffffff" />
    <path
       id="path9720"
       d="m 257.19126,379.4596 -10.48201,-59.24204 c -4.46224,-9.94556 -9.97299,-4.60702 -9.97299,-4.60702 -11.69815,-2.88339 -14.06796,7.06065 -14.06796,7.06065 -19.48574,-13.16576 -21.05241,4.5552 -21.05241,4.5552 -12.52415,2.77062 -10.20006,13.99786 -10.20006,13.99786 -11.03065,-0.81991 -9.76726,11.84145 -9.76726,11.84145 -13.01945,5.7667 -0.24536,13.8972 -0.24536,13.8972 5.39797,16.5018 25.25709,10.3571 25.25709,10.3571 3.59967,8.8848 13.62143,1.4645 13.62143,1.4645 0.44348,14.7126 11.02912,2.0696 11.02912,2.0696 7.26486,8.1686 14.85739,-1.1079 14.85739,-1.1079 0.27279,4.7304 10.92396,11.8856 11.02302,-0.2866 z"
       inkscape:connector-curvature="0"
       style="fill:#ffffff" />
    <path
       id="path9722"
       d="m 246.61629,320.50864 10.07205,56.92716 c 0,0 5.04289,13.2221 11.09313,3.2933 0,0 6.448,11.2715 17.69506,-2.6807 0,0 11.95418,19.1947 19.78749,-1.0287 0,0 15.25362,5.2304 14.94425,-13.975 -0.003,-0.2362 14.07405,-11.72097 3.96847,-21.72444 -0.15697,-0.15392 1.0287,-23.60662 -19.65643,-16.04305 0,0 2.1153,-19.44307 -14.52668,-18.45248 0,0 -10.73499,-11.56251 -21.32367,9.32987 0,0 -14.23712,-6.64155 -15.98819,5.53056 -0.002,0.003 -2.859,-3.9959 -6.06548,-1.17652 z"
       inkscape:connector-curvature="0"
       style="fill:#ffffff" />
    <path
       id="path9771"
       d="m 70.600627,571.9913 c -5.25541,0 -9.51856,-4.8836 -9.51856,-10.8878 0,-4.0113 1.94056,-7.6693 4.94945,-9.5541 1.33709,-6.9728 6.5215,-12.1707 12.75057,-12.7979 -0.0237,-0.497 -0.0355,-0.9753 -0.0355,-1.4672 0,-12.0762 7.37516,-22.2117 17.22503,-24.8757 -1.17144,-5.3501 -5.39909,-9.3175 -10.43137,-9.3175 -4.96128,0 -9.12808,3.8254 -10.38403,9.0216 -4.35613,-3.6816 -9.73155,-5.8656 -15.58029,-5.8656 -14.47984,0 -26.22464,13.4267 -26.22464,30.006 0,1.8595 0.16566,3.6952 0.44965,5.4701 -0.59164,-0.071 -1.20694,-0.1014 -1.82224,-0.1014 -8.02764,0 -14.65733,6.8849 -15.61578,15.7764 -3.61066,1.5027 -6.19019,5.4481 -6.19019,10.0865 0,5.9332 4.21413,10.7491 9.3884,10.7491 H 149.31003 c 3.76618,0 7.00834,-2.5693 8.50095,-6.2425 H 70.600627 z"
       clip-rule="evenodd"
       inkscape:connector-curvature="0"
       style="fill:#ffffff;fill-rule:evenodd" />
    <path
       id="path9773"
       d="m 169.47126,555.6452 h -3.62419 v -2.7113 c 0,-4.4508 -3.0055,-7.8975 -6.68885,-7.8975 -0.5798,0 -1.1613,0.096 -1.72758,0.2738 l -3.11369,0.9213 0.142,-3.6682 c 0.0118,-0.3093 0.0237,-0.6271 0.0237,-0.9415 0,-10.046 -7.15033,-18.2274 -15.93525,-18.2274 -3.01903,0 -5.95523,0.9702 -8.50095,2.806 l -5.13877,3.7239 1.5991,-6.7209 c 0.12847,-0.5798 0.20116,-1.1833 0.20116,-1.7935 0,-3.6885 -2.61841,-6.6838 -5.8369,-6.6838 -2.61672,0 -4.93762,2.0115 -5.62391,4.8852 l -0.92295,3.8 -2.7604,-2.3395 c -3.05284,-2.5694 -6.67703,-3.9352 -10.47701,-3.9352 -9.707893,0 -17.617203,9.0401 -17.617203,20.1443 0,1.2542 0.1065,2.4984 0.29582,3.6952 l 0.59332,3.6106 -3.19821,-0.4327 c -0.35498,-0.042 -0.73362,-0.066 -1.09875,-0.066 -4.85478,0 -8.97594,4.1431 -9.55405,9.6605 l -0.17749,1.6482 -1.3726,0.5679 c -1.8814,0.7759 -3.16102,2.8433 -3.16102,5.1506 0,3.0174 2.15355,5.4803 4.80746,5.4803 h 98.870633 c 2.64038,0 4.78379,-2.4629 4.78379,-5.4803 0,-3.0173 -2.14679,-5.4701 -4.78717,-5.4701 z"
       clip-rule="evenodd"
       inkscape:connector-curvature="0"
       style="fill:#ffffff;fill-rule:evenodd" />
    <path
       style="fill:#ffffff"
       inkscape:connector-curvature="0"
       d="m 935.50411,438.5328 c 0,-0.001 0,0 0,0 0.03,-0.2671 0.049,-0.5357 0.066,-0.8057 0,-0.01 0,-0.013 0,-0.019 0.016,-0.2771 0.024,-0.5571 0.024,-0.837 0,-8.7321 -7.2537,-15.81 -16.2014,-15.81 -8.9463,0 -16.2014,7.0779 -16.2014,15.81 0,0.2299 0.014,0.4585 0.017,0.6842 0.014,0.099 0.014,0.1957 0.02,0.2942 0,0.1086 0.016,0.2172 0.027,0.3272 0.024,0.2842 0.053,0.5656 0.09,0.8442 0,0.01 0,0.013 0,0.019 -0.2143,-1.1071 -0.3271,-2.2541 -0.3271,-3.4283 0,-7.9693 5.2123,-14.6629 12.256,-16.5428 -2.3941,-11.1518 -12.3017,-19.5125 -24.1692,-19.5125 -12.4975,0 -22.8222,9.2692 -24.4892,21.3067 -2.0841,-0.9028 -4.381,-1.4056 -6.798,-1.4056 -8.9449,0 -16.2813,6.8651 -17.0398,15.6128 4.9795,-1.167 10.5919,-1.8255 16.5256,-1.8255 18.8254,0 34.3869,6.608 36.9109,15.1957 -4.5924,-6.5279 -19.1282,-11.2961 -36.3524,-11.2961 -20.9123,0 -37.8679,7.0308 -37.8679,15.7014 0,8.6707 16.9556,15.7043 37.8665,15.7043 12.8831,0 24.2592,-2.6697 31.1,-6.7465 4.7267,-0.08 9.0735,-0.6557 12.616,-1.5841 5.7866,1.2527 12.7074,1.9812 20.1439,1.9812 20.3267,0 36.8023,-5.4409 36.8023,-12.1503 0,-5.3538 -10.4776,-9.8934 -25.0234,-11.5147 z"
       id="path10617" />
    <path
       id="path9141-8"
       d="m -122.53454,294.86396 c 0.035,-0.14777 0.085,-0.29719 0.1013,-0.4516 0.4184,-4.22376 -7.634,-8.47575 -17.9859,-9.50015 -3.719,-0.37024 -7.2206,-0.26398 -10.2041,0.21086 -2.8806,-5.61342 -9.8853,-9.58316 -18.0871,-9.58316 -8.05569,0 -14.96749,3.82363 -17.94099,9.27601 -4.1225,-2.25301 -9.4122,-3.89005 -15.3062,-4.47281 -13.3387,-1.31992 -24.808,3.17447 -26.5662,10.15762 -23.0165,0.38353 -39.7854,5.33615 -40.5441,13.00002 -0.3288,3.32887 2.4157,6.74571 7.453,9.95011 -0.7422,0.6591 -1.1805,1.393 -1.2585,2.1915 -0.4234,4.2836 9.5997,8.7813 22.3889,10.0448 5.5055,0.5462 10.6192,0.3984 14.7002,-0.2823 0.8135,0.1478 1.637,0.2889 2.4655,0.4284 3.0151,3.7339 11.861,7.0778 22.5798,8.137 13.0017,1.2867 23.9696,-1.2552 25.2795,-5.7114 2.7229,3.6211 8.04409,6.4004 14.39629,7.0264 9.638,0.9546 17.9527,-3.3837 18.577,-9.6878 0.1378,-1.393 -0.1312,-2.7644 -0.709,-4.0677 19.8852,0.1378 35.0885,-4.8364 35.8422,-12.4654 0.4981,-5.05556 -5.444,-10.2041 -15.1816,-14.2004 z"
       inkscape:connector-curvature="0"
       style="fill:#ffffff" />
    <path
       id="path9720-4"
       d="m 274.33406,336.60246 -10.482,-59.24204 c -4.4622,-9.94556 -9.973,-4.60702 -9.973,-4.60702 -11.6981,-2.88339 -14.0679,7.06065 -14.0679,7.06065 -19.4858,-13.16576 -21.0525,4.5552 -21.0525,4.5552 -12.5241,2.77062 -10.2,13.99786 -10.2,13.99786 -11.0307,-0.81991 -9.7673,11.84145 -9.7673,11.84145 -13.0194,5.7667 -0.2453,13.8972 -0.2453,13.8972 5.3979,16.5018 25.2571,10.3571 25.2571,10.3571 3.5996,8.8848 13.6214,1.4645 13.6214,1.4645 0.4435,14.7126 11.0291,2.0696 11.0291,2.0696 7.2649,8.1686 14.8574,-1.1079 14.8574,-1.1079 0.2728,4.7304 10.924,11.8856 11.023,-0.2866 z"
       inkscape:connector-curvature="0"
       style="fill:#ffffff" />
    <path
       id="path9722-9"
       d="m 263.75906,277.6515 10.0721,56.92716 c 0,0 5.0429,13.2221 11.0931,3.2933 0,0 6.448,11.2715 17.6951,-2.6807 0,0 11.9542,19.1947 19.7875,-1.0287 0,0 15.2536,5.2304 14.9442,-13.975 0,-0.2362 14.0741,-11.72097 3.9685,-21.72444 -0.157,-0.15392 1.0287,-23.60662 -19.6564,-16.04305 0,0 2.1153,-19.44308 -14.5267,-18.45249 0,0 -10.735,-11.56251 -21.3237,9.32988 0,0 -14.2371,-6.64155 -15.9882,5.53056 0,0.003 -2.859,-3.9959 -6.0655,-1.17652 z"
       inkscape:connector-curvature="0"
       style="fill:#ffffff" />
    <path
       id="path9771-5"
       d="m 87.743464,529.13415 c -5.2554,0 -9.5186,-4.8836 -9.5186,-10.8878 0,-4.0113 1.9406,-7.6693 4.9495,-9.5541 1.3371,-6.9728 6.5215,-12.1707 12.7505,-12.7979 -0.024,-0.497 -0.035,-0.9753 -0.035,-1.4672 0,-12.0762 7.375196,-22.2117 17.225096,-24.8757 -1.1715,-5.3501 -5.3991,-9.3175 -10.4314,-9.3175 -4.961296,0 -9.128096,3.8254 -10.383996,9.0216 -4.3562,-3.6816 -9.7316,-5.8656 -15.5803,-5.8656 -14.4799,0 -26.2247,13.4267 -26.2247,30.006 0,1.8595 0.1657,3.6952 0.4497,5.4701 -0.5916,-0.071 -1.2069,-0.1014 -1.8222,-0.1014 -8.0277,0 -14.6574,6.8849 -15.6158,15.7764 -3.6107,1.5027 -6.1902,5.4481 -6.1902,10.0865 0,5.9332 4.2141,10.7491 9.3884,10.7491 H 166.45336 c 3.7662,0 7.0083,-2.5693 8.5009,-6.2425 H 87.743964 z"
       clip-rule="evenodd"
       inkscape:connector-curvature="0"
       style="fill:#ffffff;fill-rule:evenodd" />
    <path
       id="path9773-5"
       d="m 186.61406,512.78805 h -3.6242 v -2.7113 c 0,-4.4508 -3.0055,-7.8975 -6.6888,-7.8975 -0.5798,0 -1.1613,0.096 -1.7276,0.2738 l -3.1137,0.9213 0.142,-3.6682 c 0.012,-0.3093 0.024,-0.6271 0.024,-0.9415 0,-10.046 -7.1503,-18.2274 -15.9352,-18.2274 -3.0191,0 -5.9553,0.9702 -8.501,2.806 l -5.1388,3.7239 1.5991,-6.7209 c 0.1285,-0.5798 0.2012,-1.1833 0.2012,-1.7935 0,-3.6885 -2.6184,-6.6838 -5.8369,-6.6838 -2.6167,0 -4.9376,2.0115 -5.6239,4.8852 l -0.923,3.8 -2.7604,-2.3395 c -3.0528,-2.5694 -6.677,-3.9352 -10.477,-3.9352 -9.7079,0 -17.6172,9.0401 -17.6172,20.1443 0,1.2542 0.1065,2.4984 0.2958,3.6952 l 0.5934,3.6106 -3.198196,-0.4327 c -0.355,-0.042 -0.7337,-0.066 -1.0988,-0.066 -4.8548,0 -8.9759,4.1431 -9.554,9.6605 l -0.1775,1.6482 -1.3726,0.5679 c -1.8814,0.7759 -3.1611,2.8433 -3.1611,5.1506 0,3.0174 2.1536,5.4803 4.8075,5.4803 h 98.870596 c 2.6404,0 4.7838,-2.4629 4.7838,-5.4803 0,-3.0173 -2.1468,-5.4701 -4.7871,-5.4701 z"
       clip-rule="evenodd"
       inkscape:connector-curvature="0"
       style="fill:#ffffff;fill-rule:evenodd" />
    <path
       style="fill:#ffffff"
       inkscape:connector-curvature="0"
       d="m 952.64696,395.67565 c 0,-0.001 0,0 0,0 0.03,-0.2671 0.049,-0.5357 0.066,-0.8057 0,-0.01 0,-0.013 0,-0.019 0.016,-0.2771 0.024,-0.5571 0.024,-0.837 0,-8.7321 -7.2537,-15.81 -16.2014,-15.81 -8.9463,0 -16.2014,7.0779 -16.2014,15.81 0,0.2299 0.014,0.4585 0.017,0.6842 0.014,0.099 0.014,0.1957 0.02,0.2942 0,0.1086 0.016,0.2172 0.027,0.3272 0.024,0.2842 0.053,0.5656 0.09,0.8442 0,0.01 0,0.013 0,0.019 -0.2143,-1.1071 -0.3271,-2.2541 -0.3271,-3.4283 0,-7.9693 5.2123,-14.6629 12.256,-16.5428 -2.3941,-11.1518 -12.3017,-19.51249 -24.1692,-19.51249 -12.4975,0 -22.8222,9.26919 -24.4892,21.30669 -2.0841,-0.9028 -4.381,-1.4056 -6.798,-1.4056 -8.9449,0 -16.2813,6.8651 -17.0398,15.6128 4.9795,-1.167 10.5919,-1.8255 16.5256,-1.8255 18.8254,0 34.3869,6.608 36.9109,15.1957 -4.5924,-6.5279 -19.1282,-11.2961 -36.3524,-11.2961 -20.9123,0 -37.8679,7.0308 -37.8679,15.7014 0,8.6707 16.9556,15.7043 37.8665,15.7043 12.8831,0 24.2592,-2.6697 31.1,-6.7465 4.7267,-0.08 9.0735,-0.6557 12.616,-1.5841 5.7866,1.2527 12.7074,1.9812 20.1439,1.9812 20.3267,0 36.8023,-5.4409 36.8023,-12.1503 0,-5.3538 -10.4776,-9.8934 -25.0234,-11.5147 z"
       id="path10617-5" />
    <path
       style="fill:#ffffff"
       inkscape:connector-curvature="0"
       d="m 184.2456,328.27334 c 0,-0.001 0,-0.003 0,-0.003 0.03,-0.26712 0.049,-0.53567 0.066,-0.80564 0,-0.006 0,-0.0129 0,-0.0186 0.016,-0.27712 0.024,-0.55709 0.024,-0.83707 0,-8.73205 -7.2537,-15.80998 -16.2014,-15.80998 -8.9463,0 -16.2014,7.07793 -16.2014,15.80998 0,0.22998 0.014,0.45853 0.017,0.68423 0.014,0.0986 0.014,0.19569 0.02,0.29425 0,0.10857 0.016,0.21713 0.027,0.32712 0.024,0.28426 0.053,0.56566 0.09,0.84421 0,0.007 0,0.0129 0,0.0186 -0.2143,-1.10705 -0.3271,-2.25408 -0.3271,-3.42826 0,-7.96927 5.2123,-14.66294 12.256,-16.54277 -2.3941,-11.15184 -12.3017,-19.5125 -24.1692,-19.5125 -12.4975,0 -22.8222,9.26915 -24.4892,21.30662 -2.0841,-0.90277 -4.381,-1.40559 -6.798,-1.40559 -8.9449,0 -16.2813,6.86509 -17.0398,15.61286 4.9795,-1.16704 10.5919,-1.82555 16.5256,-1.82555 18.8254,0 34.3869,6.60797 36.9109,15.19575 -4.5924,-6.52797 -19.1282,-11.2961 -36.3524,-11.2961 -20.9123,0 -37.8679,7.03078 -37.8679,15.70141 0,8.67064 16.9556,15.70428 37.8665,15.70428 12.8831,0 24.2592,-2.66976 31.1,-6.74653 4.7267,-0.08 9.0735,-0.65565 12.616,-1.58414 5.7866,1.25275 12.7074,1.98125 20.1439,1.98125 20.3267,0 36.8023,-5.44093 36.8023,-12.15031 0,-5.3538 -10.4776,-9.89338 -25.0234,-11.51466 z"
       id="path10617-8" />
  </g>
</svg>
