<?xml version="1.0" encoding="UTF-8" standalone="no"?>
<svg
   xmlns:dc="http://purl.org/dc/elements/1.1/"
   xmlns:cc="http://creativecommons.org/ns#"
   xmlns:rdf="http://www.w3.org/1999/02/22-rdf-syntax-ns#"
   xmlns:svg="http://www.w3.org/2000/svg"
   xmlns="http://www.w3.org/2000/svg"
   xmlns:sodipodi="http://sodipodi.sourceforge.net/DTD/sodipodi-0.dtd"
   xmlns:inkscape="http://www.inkscape.org/namespaces/inkscape"
   version="1.1"
   x="0px"
   y="0px"
   width="100px"
   height="100px"
   viewBox="-1 -1.167 100 100"
   overflow="visible"
   enable-background="new -1 -1.167 100 100"
   xml:space="preserve"
   id="svg2"
   inkscape:version="0.48.4 r9939"
   sodipodi:docname="clearday.svg"><metadata
     id="metadata26"><rdf:RDF><cc:Work
         rdf:about=""><dc:format>image/svg+xml</dc:format><dc:type
           rdf:resource="http://purl.org/dc/dcmitype/StillImage" /></cc:Work></rdf:RDF></metadata><sodipodi:namedview
     pagecolor="#ffffff"
     bordercolor="#666666"
     borderopacity="1"
     objecttolerance="10"
     gridtolerance="10"
     guidetolerance="10"
     inkscape:pageopacity="0"
     inkscape:pageshadow="2"
     inkscape:window-width="1366"
     inkscape:window-height="741"
     id="namedview24"
     showgrid="false"
     inkscape:zoom="2.36"
     inkscape:cx="50"
     inkscape:cy="50"
     inkscape:window-x="0"
     inkscape:window-y="27"
     inkscape:window-maximized="1"
     inkscape:current-layer="svg2" /><defs
     id="defs4" /><path
     fill="#000000"
     d="M49.001,22.768c-1.641,0-2.97-1.329-2.97-2.97V2.97c0-1.64,1.329-2.97,2.97-2.97  c1.64,0,2.969,1.33,2.969,2.97v16.829C51.97,21.439,50.641,22.768,49.001,22.768z"
     id="path6" /><path
     fill="#000000"
     d="M49.001,98c-1.641,0-2.97-1.329-2.97-2.97V78.203c0-1.64,1.329-2.97,2.97-2.97c1.64,0,2.969,1.33,2.969,2.97  v16.828C51.97,96.671,50.641,98,49.001,98z"
     id="path8" /><path
     fill="#000000"
     d="M95.032,51.968H78.203c-1.64,0-2.97-1.328-2.97-2.969c0-1.64,1.33-2.97,2.97-2.97h16.829  c1.64,0,2.97,1.33,2.97,2.97C98.001,50.64,96.671,51.968,95.032,51.968z"
     id="path10" /><path
     fill="#000000"
     d="M19.798,51.968H2.969C1.329,51.968,0,50.64,0,49c0-1.64,1.329-2.97,2.969-2.97h16.829  c1.64,0,2.97,1.33,2.97,2.97C22.768,50.64,21.438,51.968,19.798,51.968z"
     id="path12" /><path
     fill="#000000"
     d="M81.549,84.519c-0.76,0-1.52-0.29-2.1-0.87L67.55,71.75c-1.16-1.16-1.16-3.039,0-4.198  c1.159-1.16,3.039-1.16,4.199,0L83.649,79.45c1.16,1.16,1.16,3.04,0,4.199C83.07,84.229,82.309,84.519,81.549,84.519z"
     id="path14" /><path
     fill="#000000"
     d="M28.353,31.321c-0.759,0-1.519-0.29-2.099-0.87l-11.9-11.899c-1.16-1.159-1.16-3.039,0-4.199  c1.16-1.16,3.04-1.16,4.2,0l11.9,11.899c1.16,1.159,1.16,3.04,0,4.2C29.873,31.031,29.113,31.321,28.353,31.321z"
     id="path16" /><path
     fill="#000000"
     d="M16.454,84.521c-0.76,0-1.52-0.29-2.1-0.87c-1.16-1.159-1.16-3.039,0-4.199l11.899-11.899  c1.16-1.16,3.039-1.16,4.199,0c1.16,1.159,1.16,3.038,0,4.198l-11.899,11.9C17.975,84.231,17.214,84.521,16.454,84.521z"
     id="path18" /><path
     fill="#000000"
     d="M69.652,31.324c-0.76,0-1.521-0.29-2.1-0.87c-1.16-1.159-1.16-3.041,0-4.2l11.899-11.9  c1.16-1.161,3.04-1.161,4.199,0c1.16,1.159,1.16,3.04,0,4.199l-11.899,11.9C71.171,31.034,70.412,31.324,69.652,31.324z"
     id="path20" /><path
     fill="#000000"
     d="M49.001,68.362C38.326,68.362,29.64,59.676,29.64,49c0-10.675,8.686-19.361,19.361-19.361  c10.676,0,19.361,8.686,19.361,19.361C68.362,59.676,59.677,68.362,49.001,68.362z M49.001,35.579  c-7.401,0-13.422,6.02-13.422,13.421c0,7.4,6.021,13.422,13.422,13.422c7.401,0,13.421-6.021,13.421-13.422  C62.422,41.599,56.402,35.579,49.001,35.579z"
     id="path22" /><path
     style="fill:#ff0000"
     d="m 15.531774,84.564093 c -1.618504,-1.788428 -1.046908,-2.781127 5.33687,-9.268619 3.320975,-3.374929 6.551784,-6.404045 7.179575,-6.73137 2.30134,-1.199896 4.704273,0.866936 3.733286,3.211106 -0.271069,0.654416 -3.315973,3.973981 -6.766456,7.37681 -5.232549,5.160286 -6.481729,6.186963 -7.527806,6.186963 -0.689812,0 -1.569772,-0.3487 -1.955469,-0.77489 z"
     id="path3003"
     inkscape:connector-curvature="0"
     transform="translate(-1,-1.167)" /><path
     style="fill:#ff0000"
     d="m 48.052961,98.007336 c -0.724849,-0.800073 -0.821525,-1.74029 -0.947629,-9.216101 -0.157358,-9.328635 0.158052,-11.331852 1.851123,-11.756786 0.57395,-0.144053 1.51314,-0.144053 2.08709,0 1.693072,0.424934 2.008481,2.428151 1.851123,11.756786 -0.126104,7.475811 -0.22278,8.416028 -0.947629,9.216101 C 51.50308,98.497369 50.626913,98.898305 50,98.898305 c -0.626913,0 -1.50308,-0.400936 -1.947039,-0.890969 z"
     id="path3005"
     inkscape:connector-curvature="0"
     transform="translate(-1,-1.167)" /><path
     style="fill:#ff6600"
     d="m 75.125982,79.300847 c -3.374929,-3.320974 -6.404045,-6.551783 -6.731369,-7.179575 -0.770719,-1.478199 -0.171444,-3.168662 1.324993,-3.737607 1.679943,-0.638713 2.768759,0.160893 9.41175,6.911809 5.022302,5.103896 6.038136,6.346928 6.038136,7.388605 0,1.533625 -1.152374,2.654904 -2.728528,2.654904 -0.946957,0 -2.385389,-1.187351 -7.314982,-6.038136 z"
     id="path3007"
     inkscape:connector-curvature="0"
     transform="translate(-1,-1.167)" /><path
     style="fill:#ff6600"
     d="m 48.268994,97.796727 c -0.78424,-0.94334 -1.114444,-16.514962 -0.4012,-18.919608 0.439134,-1.48051 0.583024,-1.588983 2.107764,-1.588983 1.454553,0 1.688162,0.148327 2.101635,1.334416 0.674571,1.935076 0.608476,17.211935 -0.08039,18.580838 -0.665892,1.323248 -2.834103,1.668352 -3.727809,0.593337 z"
     id="path3009"
     inkscape:connector-curvature="0"
     transform="translate(-1,-1.167)" /><path
     style="fill:#ff6600"
     d="m 15.536967,84.040385 c -0.337031,-0.481179 -0.505953,-1.29156 -0.375383,-1.800848 0.130569,-0.509288 3.12787,-3.833817 6.660667,-7.387842 6.748507,-6.789058 7.719099,-7.38539 9.256144,-5.686974 1.46683,1.620828 0.940388,2.458942 -5.794375,9.224851 -5.604436,5.630356 -6.676652,6.525682 -7.814956,6.525682 -0.852747,0 -1.536022,-0.309392 -1.932097,-0.874869 z"
     id="path3011"
     inkscape:connector-curvature="0"
     transform="translate(-1,-1.167)" /><path
     style="fill:#ff6600"
     d="M 3.6016949,52.830831 C 1.3077552,52.271986 0.5102741,49.71902 2.1621553,48.222452 c 0.8000731,-0.724848 1.7402904,-0.821524 9.2161017,-0.947628 9.328635,-0.157358 11.331852,0.158051 11.756786,1.851122 0.44131,1.758322 -0.130538,3.036357 -1.585549,3.543577 -1.314721,0.458313 -16.1802321,0.591919 -17.9477991,0.161308 z"
     id="path3013"
     inkscape:connector-curvature="0"
     transform="translate(-1,-1.167)" /><path
     style="fill:#ff6600"
     d="M 27.754237,31.581435 C 27.055085,31.145217 23.861229,28.114201 20.65678,24.845842 15.829613,19.922403 14.830508,18.688947 14.830508,17.652952 14.830508,16.120494 15.983696,15 17.560867,15 c 0.951273,0 2.399106,1.2017 7.454182,6.186963 6.864062,6.769265 7.704097,8.005154 6.593351,9.700367 -0.382653,0.584003 -0.86642,1.061823 -1.075038,1.061823 -0.208618,0 -0.633247,0.09572 -0.943622,0.212703 -0.310374,0.116986 -1.13635,-0.144203 -1.835503,-0.580421 z"
     id="path3015"
     inkscape:connector-curvature="0"
     transform="translate(-1,-1.167)" /><path
     style="fill:#ff6600"
     d="m 48.140132,22.825362 c -1.018083,-1.018083 -1.184141,-2.868526 -1.034245,-11.524977 0.125241,-7.2326225 0.22433,-8.1709916 0.947074,-8.9687399 1.034152,-1.1414739 2.859926,-1.1414739 3.894078,0 0.722744,0.7977483 0.821833,1.7361174 0.947074,8.9687399 0.07693,4.442776 0.02177,8.707321 -0.122577,9.476768 -0.338497,1.804341 -1.256117,2.697423 -2.771536,2.697423 -0.66586,0 -1.5028,-0.292146 -1.859868,-0.649214 z"
     id="path3017"
     inkscape:connector-curvature="0"
     transform="translate(-1,-1.167)" /><path
     style="fill:#ff6600"
     d="m 69.591295,31.933668 c -1.382756,-0.555515 -1.940882,-2.288619 -1.196682,-3.715957 0.327324,-0.627792 3.35644,-3.858601 6.731369,-7.179575 C 80.229879,16.015833 81.47291,15 82.514588,15 c 1.533624,0 2.654904,1.152374 2.654904,2.728528 0,0.946956 -1.187352,2.385389 -6.038136,7.314981 -5.047508,5.129513 -7.738184,7.45383 -8.453534,7.302514 -0.06984,-0.01477 -0.558773,-0.200332 -1.086527,-0.412355 z"
     id="path3019"
     inkscape:connector-curvature="0"
     transform="translate(-1,-1.167)" /><path
     style="fill:#ff6600"
     d="m 78.283037,52.658344 c -1.277564,-0.48359 -1.834862,-1.871805 -1.41808,-3.532398 0.422904,-1.684982 2.428814,-2.000142 11.756922,-1.847195 7.479325,0.122633 8.415788,0.218524 9.216102,0.943701 1.14136,1.034205 1.141287,2.859979 -1.55e-4,3.894079 -0.808298,0.732285 -1.70293,0.815366 -9.63983,0.895208 -5.263801,0.05295 -9.213358,-0.08782 -9.914959,-0.353395 z"
     id="path3021"
     inkscape:connector-curvature="0"
     transform="translate(-1,-1.167)" /><path
     style="fill:#ff6600"
     d="M 45.094297,68.574226 C 38.680451,66.827099 33.243792,61.298388 31.563642,54.814474 28.003144,41.074065 40.904573,28.172636 54.644982,31.733133 64.760667,34.35437 71.022502,44.83422 68.436358,54.814474 65.802492,64.978897 55.086149,71.296 45.094297,68.574226 z m 9.855489,-5.758035 c 3.29129,-1.23143 6.465483,-4.405623 7.696913,-7.696913 4.154523,-11.103959 -6.492527,-21.751009 -17.596485,-17.596486 -3.29129,1.23143 -6.465483,4.405623 -7.696913,7.696914 -4.154809,11.104723 6.491762,21.751294 17.596485,17.596485 z"
     id="path3023"
     inkscape:connector-curvature="0"
     transform="translate(-1,-1.167)" /><path
     style="fill:#ffff00"
     d="m 45.127119,62.246564 c -4.780477,-1.952535 -8.262712,-7.042294 -8.262712,-12.077072 0,-6.878178 6.257416,-13.135594 13.135593,-13.135594 6.878177,0 13.135593,6.257416 13.135593,13.135594 0,6.941277 -6.278496,13.157314 -13.257421,13.125536 -1.34943,-0.0061 -3.197748,-0.414032 -4.751053,-1.048464 z"
     id="path3004"
     inkscape:connector-curvature="0"
     transform="translate(-1,-1.167)" /><path
     style="fill:#e5ff80"
     d="M 45.550847,68.433138 C 41.411672,67.32476 37.723922,64.776662 34.984125,61.131925 30.177341,54.737489 30.152583,45.725156 34.923996,39.243651 c 8.512244,-11.563065 25.740355,-9.844063 31.92819,3.185759 4.41198,9.290374 0.562474,19.786105 -8.988131,24.506271 -3.010285,1.487763 -3.64047,1.640185 -7.171165,1.734476 -2.128971,0.05686 -4.44289,-0.0498 -5.142043,-0.237019 z M 55.932203,62.52799 c 4.687653,-2.431272 7.304152,-6.444457 7.555308,-11.588334 0.231184,-4.734808 -0.658382,-7.084034 -3.916012,-10.341663 -3.25763,-3.25763 -5.606855,-4.147196 -10.341663,-3.916013 -5.144835,0.251203 -9.162705,2.871336 -11.585771,7.555308 -1.33838,2.587192 -1.589251,7.516811 -0.543028,10.670514 0.957634,2.886663 5.005942,7.084487 7.814217,8.102817 2.889321,1.047718 8.543952,0.800001 11.016949,-0.482629 z"
     id="path3006"
     inkscape:connector-curvature="0"
     transform="translate(-1,-1.167)" /><path
     style="fill:#ffcc00"
     d="m 44.585676,61.590326 c -9.91577,-4.954969 -9.641278,-18.396851 0.471832,-23.105559 10.021286,-4.665955 21.293172,6.60593 16.627217,16.627216 -3.155475,6.777158 -10.746008,9.652995 -17.099049,6.478343 z"
     id="path3008"
     inkscape:connector-curvature="0"
     transform="translate(-1,-1.167)" /><path
     style="fill:#ffcc00"
     d=""
     id="path3010"
     inkscape:connector-curvature="0"
     transform="translate(-1,-1.167)" /><path
     style="fill:#ffcc00"
     d="m 42.548818,66.91487 c -3.820654,-1.859183 -7.380972,-5.383317 -9.206584,-9.113018 -1.280187,-2.615405 -1.350709,-3.013896 -1.350709,-7.63236 0,-4.65505 0.06266,-5.001021 1.401772,-7.739353 1.844689,-3.772192 5.028966,-6.983767 8.724611,-8.799407 2.536698,-1.246259 3.441065,-1.458701 6.843111,-1.607495 3.216703,-0.140688 4.419695,-0.0052 6.704253,0.755048 8.15056,2.712332 13.41446,10.950444 12.495063,19.555029 -0.645601,6.042133 -4.546787,11.314434 -10.621949,14.355149 -3.302506,1.652956 -3.521418,1.701167 -7.693384,1.694302 -4.025047,-0.0066 -4.482287,-0.09861 -7.296184,-1.467895 z m 13.59525,-4.255129 c 4.659198,-2.23548 7.422474,-7.020294 7.405948,-12.823941 -0.01144,-4.016754 -0.915336,-6.238201 -3.720346,-9.143235 -2.867782,-2.970044 -5.436214,-4.073114 -9.495978,-4.078256 -4.361165,-0.0055 -7.470011,1.156958 -10.066651,3.764195 -2.843552,2.855157 -3.568737,4.633813 -3.750403,9.198596 -0.12984,3.262517 -0.0089,4.192924 0.785077,6.038518 1.098647,2.553874 5.591029,7.011497 7.723001,7.663246 2.292804,0.700916 9.165706,0.318234 11.119352,-0.619123 z"
     id="path3012"
     inkscape:connector-curvature="0"
     transform="translate(-1,-1.167)" /><path
     style="fill:#ff6600"
     d="m 69.067797,31.101695 c -0.466102,-0.466102 -0.847458,-1.104866 -0.847458,-1.419476 0,-1.073544 2.404902,-3.873461 7.788519,-9.067812 4.235326,-4.08643 5.628726,-5.190678 6.549882,-5.190678 1.501449,0 2.187023,0.703906 2.187023,2.245504 0,1.018368 -1.111309,2.345004 -6.495641,7.754238 -6.802751,6.834212 -7.558805,7.301745 -9.182325,5.678224 z"
     id="path3014"
     inkscape:connector-curvature="0"
     transform="translate(-1,-1.167)" /></svg>